<svg xmlns="http://www.w3.org/2000/svg" viewBox="0 0 149.94 174.08"><defs><style>.cls-1{fill:#f96138;}</style></defs><g id="Capa_2" data-name="Capa 2"><g id="Capa_1-2" data-name="Capa 1"><path class="cls-1" d="M114.55,56.1a28.62,28.62,0,0,0-24.5,13.8,26,26,0,0,0-1.35,2.49H82.53a15.32,15.32,0,0,1-12.15-6.05L38.16,24.8H149.94V0H0V174.08H24.81V48.25l31.69,41a20.32,20.32,0,0,0,16.14,8H88.79a27.34,27.34,0,0,0,1.41,2.54A28.65,28.65,0,1,0,114.55,56.1Zm3,41.31a13,13,0,0,1-3,.35,13,13,0,1,1,0-26,13,13,0,0,1,3,25.66Z"/></g></g></svg>